M48
;DRILL file {KiCad (5.0.1)-3} date 09/12/19 10:27:23
;FORMAT={-:-/ absolute / inch / decimal}
FMAT,2
INCH,TZ
T1C0.0157
T2C0.0276
T3C0.0315
T4C0.0354
T5C0.1378
T6C0.2402
%
G90
G05
M72
T1
X5.84Y-3.53
X5.97Y-3.53
T2
X5.97Y-3.43
X5.97Y-3.73
X5.83Y-3.43
X5.83Y-3.73
T3
X5.34Y-3.37
X5.34Y-3.47
X5.34Y-3.57
X5.34Y-3.67
X5.64Y-3.37
X5.64Y-3.47
X5.64Y-3.57
X5.64Y-3.67
T4
X5.8Y-3.2
X5.9Y-3.2
T5
X6.34Y-3.58
X4.96Y-3.59
T6
X5.0598Y-4.05
X5.65Y-4.05
X6.2398Y-4.05
T0
M30
