G04 #@! TF.GenerationSoftware,KiCad,Pcbnew,(5.0.1)-3*
G04 #@! TF.CreationDate,2019-09-12T10:27:16+05:30*
G04 #@! TF.ProjectId,kicad-tut,6B696361642D7475742E6B696361645F,v1.0*
G04 #@! TF.SameCoordinates,Original*
G04 #@! TF.FileFunction,Legend,Top*
G04 #@! TF.FilePolarity,Positive*
%FSLAX46Y46*%
G04 Gerber Fmt 4.6, Leading zero omitted, Abs format (unit mm)*
G04 Created by KiCad (PCBNEW (5.0.1)-3) date 09/12/19 10:27:16*
%MOMM*%
%LPD*%
G01*
G04 APERTURE LIST*
%ADD10C,0.300000*%
%ADD11C,0.120000*%
%ADD12C,0.150000*%
G04 APERTURE END LIST*
D10*
X122202571Y-79389857D02*
X122416857Y-79461285D01*
X122488285Y-79532714D01*
X122559714Y-79675571D01*
X122559714Y-79889857D01*
X122488285Y-80032714D01*
X122416857Y-80104142D01*
X122273999Y-80175571D01*
X121702571Y-80175571D01*
X121702571Y-78675571D01*
X122202571Y-78675571D01*
X122345428Y-78747000D01*
X122416857Y-78818428D01*
X122488285Y-78961285D01*
X122488285Y-79104142D01*
X122416857Y-79247000D01*
X122345428Y-79318428D01*
X122202571Y-79389857D01*
X121702571Y-79389857D01*
X123416857Y-80175571D02*
X123273999Y-80104142D01*
X123202571Y-79961285D01*
X123202571Y-78675571D01*
X123988285Y-80175571D02*
X123988285Y-79175571D01*
X123988285Y-78675571D02*
X123916857Y-78747000D01*
X123988285Y-78818428D01*
X124059714Y-78747000D01*
X123988285Y-78675571D01*
X123988285Y-78818428D01*
X124702571Y-79175571D02*
X124702571Y-80175571D01*
X124702571Y-79318428D02*
X124773999Y-79247000D01*
X124916857Y-79175571D01*
X125131142Y-79175571D01*
X125273999Y-79247000D01*
X125345428Y-79389857D01*
X125345428Y-80175571D01*
X126059714Y-80175571D02*
X126059714Y-78675571D01*
X126202571Y-79604142D02*
X126631142Y-80175571D01*
X126631142Y-79175571D02*
X126059714Y-79747000D01*
X127131142Y-79175571D02*
X127488285Y-80175571D01*
X127845428Y-79175571D02*
X127488285Y-80175571D01*
X127345428Y-80532714D01*
X127273999Y-80604142D01*
X127131142Y-80675571D01*
X130059714Y-79389857D02*
X130273999Y-79461285D01*
X130345428Y-79532714D01*
X130416857Y-79675571D01*
X130416857Y-79889857D01*
X130345428Y-80032714D01*
X130273999Y-80104142D01*
X130131142Y-80175571D01*
X129559714Y-80175571D01*
X129559714Y-78675571D01*
X130059714Y-78675571D01*
X130202571Y-78747000D01*
X130273999Y-78818428D01*
X130345428Y-78961285D01*
X130345428Y-79104142D01*
X130273999Y-79247000D01*
X130202571Y-79318428D01*
X130059714Y-79389857D01*
X129559714Y-79389857D01*
X131273999Y-80175571D02*
X131131142Y-80104142D01*
X131059714Y-80032714D01*
X130988285Y-79889857D01*
X130988285Y-79461285D01*
X131059714Y-79318428D01*
X131131142Y-79247000D01*
X131273999Y-79175571D01*
X131488285Y-79175571D01*
X131631142Y-79247000D01*
X131702571Y-79318428D01*
X131773999Y-79461285D01*
X131773999Y-79889857D01*
X131702571Y-80032714D01*
X131631142Y-80104142D01*
X131488285Y-80175571D01*
X131273999Y-80175571D01*
X133059714Y-80175571D02*
X133059714Y-79389857D01*
X132988285Y-79247000D01*
X132845428Y-79175571D01*
X132559714Y-79175571D01*
X132416857Y-79247000D01*
X133059714Y-80104142D02*
X132916857Y-80175571D01*
X132559714Y-80175571D01*
X132416857Y-80104142D01*
X132345428Y-79961285D01*
X132345428Y-79818428D01*
X132416857Y-79675571D01*
X132559714Y-79604142D01*
X132916857Y-79604142D01*
X133059714Y-79532714D01*
X133773999Y-80175571D02*
X133773999Y-79175571D01*
X133773999Y-79461285D02*
X133845428Y-79318428D01*
X133916857Y-79247000D01*
X134059714Y-79175571D01*
X134202571Y-79175571D01*
X135345428Y-80175571D02*
X135345428Y-78675571D01*
X135345428Y-80104142D02*
X135202571Y-80175571D01*
X134916857Y-80175571D01*
X134773999Y-80104142D01*
X134702571Y-80032714D01*
X134631142Y-79889857D01*
X134631142Y-79461285D01*
X134702571Y-79318428D01*
X134773999Y-79247000D01*
X134916857Y-79175571D01*
X135202571Y-79175571D01*
X135345428Y-79247000D01*
X125666857Y-82725571D02*
X125666857Y-81225571D01*
X126523999Y-82725571D02*
X125881142Y-81868428D01*
X126523999Y-81225571D02*
X125666857Y-82082714D01*
X127166857Y-82725571D02*
X127166857Y-81725571D01*
X127166857Y-81225571D02*
X127095428Y-81297000D01*
X127166857Y-81368428D01*
X127238285Y-81297000D01*
X127166857Y-81225571D01*
X127166857Y-81368428D01*
X128738285Y-82582714D02*
X128666857Y-82654142D01*
X128452571Y-82725571D01*
X128309714Y-82725571D01*
X128095428Y-82654142D01*
X127952571Y-82511285D01*
X127881142Y-82368428D01*
X127809714Y-82082714D01*
X127809714Y-81868428D01*
X127881142Y-81582714D01*
X127952571Y-81439857D01*
X128095428Y-81297000D01*
X128309714Y-81225571D01*
X128452571Y-81225571D01*
X128666857Y-81297000D01*
X128738285Y-81368428D01*
X130023999Y-82725571D02*
X130023999Y-81939857D01*
X129952571Y-81797000D01*
X129809714Y-81725571D01*
X129523999Y-81725571D01*
X129381142Y-81797000D01*
X130023999Y-82654142D02*
X129881142Y-82725571D01*
X129523999Y-82725571D01*
X129381142Y-82654142D01*
X129309714Y-82511285D01*
X129309714Y-82368428D01*
X129381142Y-82225571D01*
X129523999Y-82154142D01*
X129881142Y-82154142D01*
X130023999Y-82082714D01*
X131381142Y-82725571D02*
X131381142Y-81225571D01*
X131381142Y-82654142D02*
X131238285Y-82725571D01*
X130952571Y-82725571D01*
X130809714Y-82654142D01*
X130738285Y-82582714D01*
X130666857Y-82439857D01*
X130666857Y-82011285D01*
X130738285Y-81868428D01*
X130809714Y-81797000D01*
X130952571Y-81725571D01*
X131238285Y-81725571D01*
X131381142Y-81797000D01*
D11*
G04 #@! TO.C,D1*
X151580000Y-81280462D02*
G75*
G03X146030000Y-79735170I-2990000J462D01*
G01*
X151580000Y-81279538D02*
G75*
G02X146030000Y-82824830I-2990000J-462D01*
G01*
X151090000Y-81280000D02*
G75*
G03X151090000Y-81280000I-2500000J0D01*
G01*
X146030000Y-79735000D02*
X146030000Y-82825000D01*
G04 #@! TO.C,J1*
X128520000Y-108120000D02*
X158520000Y-108120000D01*
X158520000Y-97620000D02*
X128520000Y-97620000D01*
X158520000Y-108120000D02*
G75*
G03X158520000Y-97620000I0J5250000D01*
G01*
X128520000Y-97620000D02*
G75*
G03X128520000Y-108120000I0J-5250000D01*
G01*
G04 #@! TO.C,R1*
X152558000Y-89012000D02*
X150718000Y-89012000D01*
X150718000Y-89012000D02*
X150718000Y-92852000D01*
X150718000Y-92852000D02*
X152558000Y-92852000D01*
X152558000Y-92852000D02*
X152558000Y-89012000D01*
X151638000Y-88062000D02*
X151638000Y-89012000D01*
X151638000Y-93802000D02*
X151638000Y-92852000D01*
G04 #@! TO.C,R2*
X148082000Y-88062000D02*
X148082000Y-89012000D01*
X148082000Y-93802000D02*
X148082000Y-92852000D01*
X147162000Y-89012000D02*
X147162000Y-92852000D01*
X149002000Y-89012000D02*
X147162000Y-89012000D01*
X149002000Y-92852000D02*
X149002000Y-89012000D01*
X147162000Y-92852000D02*
X149002000Y-92852000D01*
G04 #@! TO.C,U1*
X140446000Y-84268000D02*
G75*
G02X138446000Y-84268000I-1000000J0D01*
G01*
X138446000Y-84268000D02*
X136796000Y-84268000D01*
X136796000Y-84268000D02*
X136796000Y-94548000D01*
X136796000Y-94548000D02*
X142096000Y-94548000D01*
X142096000Y-94548000D02*
X142096000Y-84268000D01*
X142096000Y-84268000D02*
X140446000Y-84268000D01*
G04 #@! TO.C,D1*
D12*
X152423904Y-81732380D02*
X152423904Y-80732380D01*
X152661999Y-80732380D01*
X152804857Y-80780000D01*
X152900095Y-80875238D01*
X152947714Y-80970476D01*
X152995333Y-81160952D01*
X152995333Y-81303809D01*
X152947714Y-81494285D01*
X152900095Y-81589523D01*
X152804857Y-81684761D01*
X152661999Y-81732380D01*
X152423904Y-81732380D01*
X153947714Y-81732380D02*
X153376285Y-81732380D01*
X153661999Y-81732380D02*
X153661999Y-80732380D01*
X153566761Y-80875238D01*
X153471523Y-80970476D01*
X153376285Y-81018095D01*
G04 #@! TO.C,J1*
X121586666Y-102576380D02*
X121586666Y-103290666D01*
X121539047Y-103433523D01*
X121443809Y-103528761D01*
X121300952Y-103576380D01*
X121205714Y-103576380D01*
X122586666Y-103576380D02*
X122015238Y-103576380D01*
X122300952Y-103576380D02*
X122300952Y-102576380D01*
X122205714Y-102719238D01*
X122110476Y-102814476D01*
X122015238Y-102862095D01*
G04 #@! TO.C,R1*
X152344380Y-96686666D02*
X151868190Y-97020000D01*
X152344380Y-97258095D02*
X151344380Y-97258095D01*
X151344380Y-96877142D01*
X151391999Y-96781904D01*
X151439619Y-96734285D01*
X151534857Y-96686666D01*
X151677714Y-96686666D01*
X151772952Y-96734285D01*
X151820571Y-96781904D01*
X151868190Y-96877142D01*
X151868190Y-97258095D01*
X152344380Y-95734285D02*
X152344380Y-96305714D01*
X152344380Y-96020000D02*
X151344380Y-96020000D01*
X151487238Y-96115238D01*
X151582476Y-96210476D01*
X151630095Y-96305714D01*
G04 #@! TO.C,R2*
X147264380Y-96686666D02*
X146788190Y-97020000D01*
X147264380Y-97258095D02*
X146264380Y-97258095D01*
X146264380Y-96877142D01*
X146311999Y-96781904D01*
X146359619Y-96734285D01*
X146454857Y-96686666D01*
X146597714Y-96686666D01*
X146692952Y-96734285D01*
X146740571Y-96781904D01*
X146788190Y-96877142D01*
X146788190Y-97258095D01*
X146359619Y-96305714D02*
X146312000Y-96258095D01*
X146264380Y-96162857D01*
X146264380Y-95924761D01*
X146312000Y-95829523D01*
X146359619Y-95781904D01*
X146454857Y-95734285D01*
X146550095Y-95734285D01*
X146692952Y-95781904D01*
X147264380Y-96353333D01*
X147264380Y-95734285D01*
G04 #@! TO.C,U1*
X140716095Y-82720380D02*
X140716095Y-83529904D01*
X140763714Y-83625142D01*
X140811333Y-83672761D01*
X140906571Y-83720380D01*
X141097047Y-83720380D01*
X141192285Y-83672761D01*
X141239904Y-83625142D01*
X141287523Y-83529904D01*
X141287523Y-82720380D01*
X142287523Y-83720380D02*
X141716095Y-83720380D01*
X142001809Y-83720380D02*
X142001809Y-82720380D01*
X141906571Y-82863238D01*
X141811333Y-82958476D01*
X141716095Y-83006095D01*
G04 #@! TO.C,*
G04 #@! TD*
M02*
