G04 #@! TF.GenerationSoftware,KiCad,Pcbnew,(5.0.1)-3*
G04 #@! TF.CreationDate,2019-09-11T17:54:32+05:30*
G04 #@! TF.ProjectId,kicad-tut,6B696361642D7475742E6B696361645F,v1.0*
G04 #@! TF.SameCoordinates,Original*
G04 #@! TF.FileFunction,Copper,L2,Bot,Signal*
G04 #@! TF.FilePolarity,Positive*
%FSLAX46Y46*%
G04 Gerber Fmt 4.6, Leading zero omitted, Abs format (unit mm)*
G04 Created by KiCad (PCBNEW (5.0.1)-3) date 09/11/19 17:54:32*
%MOMM*%
%LPD*%
G01*
G04 APERTURE LIST*
G04 #@! TA.AperFunction,NonConductor*
%ADD10C,0.300000*%
G04 #@! TD*
G04 #@! TA.AperFunction,ComponentPad*
%ADD11R,1.800000X1.800000*%
G04 #@! TD*
G04 #@! TA.AperFunction,ComponentPad*
%ADD12C,1.800000*%
G04 #@! TD*
G04 #@! TA.AperFunction,ComponentPad*
%ADD13C,10.160000*%
G04 #@! TD*
G04 #@! TA.AperFunction,ComponentPad*
%ADD14C,1.400000*%
G04 #@! TD*
G04 #@! TA.AperFunction,ComponentPad*
%ADD15O,1.400000X1.400000*%
G04 #@! TD*
G04 #@! TA.AperFunction,ComponentPad*
%ADD16R,1.600000X1.600000*%
G04 #@! TD*
G04 #@! TA.AperFunction,ComponentPad*
%ADD17O,1.600000X1.600000*%
G04 #@! TD*
G04 #@! TA.AperFunction,ComponentPad*
%ADD18C,7.000000*%
G04 #@! TD*
G04 #@! TA.AperFunction,ViaPad*
%ADD19C,0.800000*%
G04 #@! TD*
G04 #@! TA.AperFunction,Conductor*
%ADD20C,0.250000*%
G04 #@! TD*
G04 #@! TA.AperFunction,Conductor*
%ADD21C,0.254000*%
G04 #@! TD*
G04 APERTURE END LIST*
D10*
X164702857Y-79180571D02*
X164345714Y-80180571D01*
X163988571Y-79180571D01*
X162631428Y-80180571D02*
X163488571Y-80180571D01*
X163059999Y-80180571D02*
X163059999Y-78680571D01*
X163202857Y-78894857D01*
X163345714Y-79037714D01*
X163488571Y-79109142D01*
X161988571Y-80037714D02*
X161917142Y-80109142D01*
X161988571Y-80180571D01*
X162059999Y-80109142D01*
X161988571Y-80037714D01*
X161988571Y-80180571D01*
X160988571Y-78680571D02*
X160845714Y-78680571D01*
X160702857Y-78752000D01*
X160631428Y-78823428D01*
X160559999Y-78966285D01*
X160488571Y-79252000D01*
X160488571Y-79609142D01*
X160559999Y-79894857D01*
X160631428Y-80037714D01*
X160702857Y-80109142D01*
X160845714Y-80180571D01*
X160988571Y-80180571D01*
X161131428Y-80109142D01*
X161202857Y-80037714D01*
X161274285Y-79894857D01*
X161345714Y-79609142D01*
X161345714Y-79252000D01*
X161274285Y-78966285D01*
X161202857Y-78823428D01*
X161131428Y-78752000D01*
X160988571Y-78680571D01*
D11*
G04 #@! TO.P,D1,1*
G04 #@! TO.N,/uCtoLED*
X147320000Y-81280000D03*
D12*
G04 #@! TO.P,D1,2*
G04 #@! TO.N,/LEDtoR*
X149860000Y-81280000D03*
G04 #@! TD*
D13*
G04 #@! TO.P,J1,1*
G04 #@! TO.N,VCC*
X128520000Y-102870000D03*
G04 #@! TO.P,J1,3*
G04 #@! TO.N,GND*
X158490000Y-102870000D03*
G04 #@! TO.P,J1,2*
G04 #@! TO.N,Net-(J1-Pad2)*
X143510000Y-102870000D03*
G04 #@! TD*
D14*
G04 #@! TO.P,R1,1*
G04 #@! TO.N,/LEDtoR*
X151638000Y-87122000D03*
D15*
G04 #@! TO.P,R1,2*
G04 #@! TO.N,VCC*
X151638000Y-94742000D03*
G04 #@! TD*
G04 #@! TO.P,R2,2*
G04 #@! TO.N,/INPUT*
X148082000Y-87122000D03*
D14*
G04 #@! TO.P,R2,1*
G04 #@! TO.N,Net-(J1-Pad2)*
X148082000Y-94742000D03*
G04 #@! TD*
D16*
G04 #@! TO.P,U1,1*
G04 #@! TO.N,VCC*
X135636000Y-85598000D03*
D17*
G04 #@! TO.P,U1,5*
G04 #@! TO.N,Net-(U1-Pad5)*
X143256000Y-93218000D03*
G04 #@! TO.P,U1,2*
G04 #@! TO.N,Net-(U1-Pad2)*
X135636000Y-88138000D03*
G04 #@! TO.P,U1,6*
G04 #@! TO.N,/INPUT*
X143256000Y-90678000D03*
G04 #@! TO.P,U1,3*
G04 #@! TO.N,Net-(U1-Pad3)*
X135636000Y-90678000D03*
G04 #@! TO.P,U1,7*
G04 #@! TO.N,/uCtoLED*
X143256000Y-88138000D03*
G04 #@! TO.P,U1,4*
G04 #@! TO.N,Net-(U1-Pad4)*
X135636000Y-93218000D03*
G04 #@! TO.P,U1,8*
G04 #@! TO.N,GND*
X143256000Y-85598000D03*
G04 #@! TD*
D18*
G04 #@! TO.P,,1*
G04 #@! TO.N,N/C*
X125984000Y-91186000D03*
G04 #@! TD*
G04 #@! TO.P,,2*
G04 #@! TO.N,N/C*
X161036000Y-90932000D03*
G04 #@! TD*
D19*
G04 #@! TO.N,GND*
X151638000Y-89662000D03*
X148336000Y-89662000D03*
G04 #@! TD*
D20*
G04 #@! TO.N,GND*
X158490000Y-95685796D02*
X152466204Y-89662000D01*
X158490000Y-102870000D02*
X158490000Y-95685796D01*
X152466204Y-89662000D02*
X151638000Y-89662000D01*
X147320000Y-89662000D02*
X145796000Y-88138000D01*
X148336000Y-89662000D02*
X147320000Y-89662000D01*
X145796000Y-88138000D02*
X145796000Y-86614000D01*
X144780000Y-85598000D02*
X143256000Y-85598000D01*
X145796000Y-86614000D02*
X144780000Y-85598000D01*
G04 #@! TD*
D21*
G04 #@! TO.N,GND*
G36*
X159417857Y-81532000D02*
X165227000Y-81532000D01*
X165227000Y-109601000D01*
X121360000Y-109601000D01*
X121360000Y-101733216D01*
X122805000Y-101733216D01*
X122805000Y-104006784D01*
X123675057Y-106107287D01*
X125282713Y-107714943D01*
X127383216Y-108585000D01*
X129656784Y-108585000D01*
X131757287Y-107714943D01*
X133364943Y-106107287D01*
X134235000Y-104006784D01*
X134235000Y-101733216D01*
X137795000Y-101733216D01*
X137795000Y-104006784D01*
X138665057Y-106107287D01*
X140272713Y-107714943D01*
X142373216Y-108585000D01*
X144646784Y-108585000D01*
X146747287Y-107714943D01*
X147495402Y-106966828D01*
X154572777Y-106966828D01*
X155168556Y-107657641D01*
X157253537Y-108564265D01*
X159526758Y-108603989D01*
X161642142Y-107770765D01*
X161811444Y-107657641D01*
X162407223Y-106966828D01*
X158490000Y-103049605D01*
X154572777Y-106966828D01*
X147495402Y-106966828D01*
X148354943Y-106107287D01*
X149225000Y-104006784D01*
X149225000Y-103906758D01*
X152756011Y-103906758D01*
X153589235Y-106022142D01*
X153702359Y-106191444D01*
X154393172Y-106787223D01*
X158310395Y-102870000D01*
X158669605Y-102870000D01*
X162586828Y-106787223D01*
X163277641Y-106191444D01*
X164184265Y-104106463D01*
X164223989Y-101833242D01*
X163390765Y-99717858D01*
X163277641Y-99548556D01*
X162586828Y-98952777D01*
X158669605Y-102870000D01*
X158310395Y-102870000D01*
X154393172Y-98952777D01*
X153702359Y-99548556D01*
X152795735Y-101633537D01*
X152756011Y-103906758D01*
X149225000Y-103906758D01*
X149225000Y-101733216D01*
X148354943Y-99632713D01*
X147495402Y-98773172D01*
X154572777Y-98773172D01*
X158490000Y-102690395D01*
X162407223Y-98773172D01*
X161811444Y-98082359D01*
X159726463Y-97175735D01*
X157453242Y-97136011D01*
X155337858Y-97969235D01*
X155168556Y-98082359D01*
X154572777Y-98773172D01*
X147495402Y-98773172D01*
X146747287Y-98025057D01*
X144646784Y-97155000D01*
X142373216Y-97155000D01*
X140272713Y-98025057D01*
X138665057Y-99632713D01*
X137795000Y-101733216D01*
X134235000Y-101733216D01*
X133364943Y-99632713D01*
X131757287Y-98025057D01*
X129656784Y-97155000D01*
X127383216Y-97155000D01*
X125282713Y-98025057D01*
X123675057Y-99632713D01*
X122805000Y-101733216D01*
X121360000Y-101733216D01*
X121360000Y-90363497D01*
X121849000Y-90363497D01*
X121849000Y-92008503D01*
X122478517Y-93528289D01*
X123641711Y-94691483D01*
X125161497Y-95321000D01*
X126806503Y-95321000D01*
X128326289Y-94691483D01*
X129489483Y-93528289D01*
X130119000Y-92008503D01*
X130119000Y-90363497D01*
X129489483Y-88843711D01*
X128783772Y-88138000D01*
X134172887Y-88138000D01*
X134284260Y-88697909D01*
X134601423Y-89172577D01*
X134953758Y-89408000D01*
X134601423Y-89643423D01*
X134284260Y-90118091D01*
X134172887Y-90678000D01*
X134284260Y-91237909D01*
X134601423Y-91712577D01*
X134953758Y-91948000D01*
X134601423Y-92183423D01*
X134284260Y-92658091D01*
X134172887Y-93218000D01*
X134284260Y-93777909D01*
X134601423Y-94252577D01*
X135076091Y-94569740D01*
X135494667Y-94653000D01*
X135777333Y-94653000D01*
X136195909Y-94569740D01*
X136670577Y-94252577D01*
X136987740Y-93777909D01*
X137099113Y-93218000D01*
X136987740Y-92658091D01*
X136670577Y-92183423D01*
X136318242Y-91948000D01*
X136670577Y-91712577D01*
X136987740Y-91237909D01*
X137099113Y-90678000D01*
X136987740Y-90118091D01*
X136670577Y-89643423D01*
X136318242Y-89408000D01*
X136670577Y-89172577D01*
X136987740Y-88697909D01*
X137099113Y-88138000D01*
X141792887Y-88138000D01*
X141904260Y-88697909D01*
X142221423Y-89172577D01*
X142573758Y-89408000D01*
X142221423Y-89643423D01*
X141904260Y-90118091D01*
X141792887Y-90678000D01*
X141904260Y-91237909D01*
X142221423Y-91712577D01*
X142573758Y-91948000D01*
X142221423Y-92183423D01*
X141904260Y-92658091D01*
X141792887Y-93218000D01*
X141904260Y-93777909D01*
X142221423Y-94252577D01*
X142696091Y-94569740D01*
X143114667Y-94653000D01*
X143397333Y-94653000D01*
X143815909Y-94569740D01*
X143955524Y-94476452D01*
X146747000Y-94476452D01*
X146747000Y-95007548D01*
X146950242Y-95498217D01*
X147325783Y-95873758D01*
X147816452Y-96077000D01*
X148347548Y-96077000D01*
X148838217Y-95873758D01*
X149213758Y-95498217D01*
X149417000Y-95007548D01*
X149417000Y-94742000D01*
X150276846Y-94742000D01*
X150380458Y-95262891D01*
X150675519Y-95704481D01*
X151117109Y-95999542D01*
X151506515Y-96077000D01*
X151769485Y-96077000D01*
X152158891Y-95999542D01*
X152600481Y-95704481D01*
X152895542Y-95262891D01*
X152999154Y-94742000D01*
X152895542Y-94221109D01*
X152600481Y-93779519D01*
X152158891Y-93484458D01*
X151769485Y-93407000D01*
X151506515Y-93407000D01*
X151117109Y-93484458D01*
X150675519Y-93779519D01*
X150380458Y-94221109D01*
X150276846Y-94742000D01*
X149417000Y-94742000D01*
X149417000Y-94476452D01*
X149213758Y-93985783D01*
X148838217Y-93610242D01*
X148347548Y-93407000D01*
X147816452Y-93407000D01*
X147325783Y-93610242D01*
X146950242Y-93985783D01*
X146747000Y-94476452D01*
X143955524Y-94476452D01*
X144290577Y-94252577D01*
X144607740Y-93777909D01*
X144719113Y-93218000D01*
X144607740Y-92658091D01*
X144290577Y-92183423D01*
X143938242Y-91948000D01*
X144290577Y-91712577D01*
X144607740Y-91237909D01*
X144719113Y-90678000D01*
X144607740Y-90118091D01*
X144601998Y-90109497D01*
X156901000Y-90109497D01*
X156901000Y-91754503D01*
X157530517Y-93274289D01*
X158693711Y-94437483D01*
X160213497Y-95067000D01*
X161858503Y-95067000D01*
X163378289Y-94437483D01*
X164541483Y-93274289D01*
X165171000Y-91754503D01*
X165171000Y-90109497D01*
X164541483Y-88589711D01*
X163378289Y-87426517D01*
X161858503Y-86797000D01*
X160213497Y-86797000D01*
X158693711Y-87426517D01*
X157530517Y-88589711D01*
X156901000Y-90109497D01*
X144601998Y-90109497D01*
X144290577Y-89643423D01*
X143938242Y-89408000D01*
X144290577Y-89172577D01*
X144607740Y-88697909D01*
X144719113Y-88138000D01*
X144607740Y-87578091D01*
X144302990Y-87122000D01*
X146720846Y-87122000D01*
X146824458Y-87642891D01*
X147119519Y-88084481D01*
X147561109Y-88379542D01*
X147950515Y-88457000D01*
X148213485Y-88457000D01*
X148602891Y-88379542D01*
X149044481Y-88084481D01*
X149339542Y-87642891D01*
X149443154Y-87122000D01*
X149390334Y-86856452D01*
X150303000Y-86856452D01*
X150303000Y-87387548D01*
X150506242Y-87878217D01*
X150881783Y-88253758D01*
X151372452Y-88457000D01*
X151903548Y-88457000D01*
X152394217Y-88253758D01*
X152769758Y-87878217D01*
X152973000Y-87387548D01*
X152973000Y-86856452D01*
X152769758Y-86365783D01*
X152394217Y-85990242D01*
X151903548Y-85787000D01*
X151372452Y-85787000D01*
X150881783Y-85990242D01*
X150506242Y-86365783D01*
X150303000Y-86856452D01*
X149390334Y-86856452D01*
X149339542Y-86601109D01*
X149044481Y-86159519D01*
X148602891Y-85864458D01*
X148213485Y-85787000D01*
X147950515Y-85787000D01*
X147561109Y-85864458D01*
X147119519Y-86159519D01*
X146824458Y-86601109D01*
X146720846Y-87122000D01*
X144302990Y-87122000D01*
X144290577Y-87103423D01*
X143906892Y-86847053D01*
X144111134Y-86750389D01*
X144487041Y-86335423D01*
X144647904Y-85947039D01*
X144525915Y-85725000D01*
X143383000Y-85725000D01*
X143383000Y-85745000D01*
X143129000Y-85745000D01*
X143129000Y-85725000D01*
X141986085Y-85725000D01*
X141864096Y-85947039D01*
X142024959Y-86335423D01*
X142400866Y-86750389D01*
X142605108Y-86847053D01*
X142221423Y-87103423D01*
X141904260Y-87578091D01*
X141792887Y-88138000D01*
X137099113Y-88138000D01*
X136987740Y-87578091D01*
X136670577Y-87103423D01*
X136549894Y-87022785D01*
X136683765Y-86996157D01*
X136893809Y-86855809D01*
X137034157Y-86645765D01*
X137083440Y-86398000D01*
X137083440Y-85248961D01*
X141864096Y-85248961D01*
X141986085Y-85471000D01*
X143129000Y-85471000D01*
X143129000Y-84327371D01*
X143383000Y-84327371D01*
X143383000Y-85471000D01*
X144525915Y-85471000D01*
X144647904Y-85248961D01*
X144487041Y-84860577D01*
X144111134Y-84445611D01*
X143605041Y-84206086D01*
X143383000Y-84327371D01*
X143129000Y-84327371D01*
X142906959Y-84206086D01*
X142400866Y-84445611D01*
X142024959Y-84860577D01*
X141864096Y-85248961D01*
X137083440Y-85248961D01*
X137083440Y-84798000D01*
X137034157Y-84550235D01*
X136893809Y-84340191D01*
X136683765Y-84199843D01*
X136436000Y-84150560D01*
X134836000Y-84150560D01*
X134588235Y-84199843D01*
X134378191Y-84340191D01*
X134237843Y-84550235D01*
X134188560Y-84798000D01*
X134188560Y-86398000D01*
X134237843Y-86645765D01*
X134378191Y-86855809D01*
X134588235Y-86996157D01*
X134722106Y-87022785D01*
X134601423Y-87103423D01*
X134284260Y-87578091D01*
X134172887Y-88138000D01*
X128783772Y-88138000D01*
X128326289Y-87680517D01*
X126806503Y-87051000D01*
X125161497Y-87051000D01*
X123641711Y-87680517D01*
X122478517Y-88843711D01*
X121849000Y-90363497D01*
X121360000Y-90363497D01*
X121360000Y-80380000D01*
X145772560Y-80380000D01*
X145772560Y-82180000D01*
X145821843Y-82427765D01*
X145962191Y-82637809D01*
X146172235Y-82778157D01*
X146420000Y-82827440D01*
X148220000Y-82827440D01*
X148467765Y-82778157D01*
X148677809Y-82637809D01*
X148818157Y-82427765D01*
X148821275Y-82412092D01*
X148990493Y-82581310D01*
X149554670Y-82815000D01*
X150165330Y-82815000D01*
X150729507Y-82581310D01*
X151161310Y-82149507D01*
X151395000Y-81585330D01*
X151395000Y-80974670D01*
X151161310Y-80410493D01*
X150729507Y-79978690D01*
X150165330Y-79745000D01*
X149554670Y-79745000D01*
X148990493Y-79978690D01*
X148821275Y-80147908D01*
X148818157Y-80132235D01*
X148677809Y-79922191D01*
X148467765Y-79781843D01*
X148220000Y-79732560D01*
X146420000Y-79732560D01*
X146172235Y-79781843D01*
X145962191Y-79922191D01*
X145821843Y-80132235D01*
X145772560Y-80380000D01*
X121360000Y-80380000D01*
X121360000Y-78180000D01*
X159417857Y-78180000D01*
X159417857Y-81532000D01*
X159417857Y-81532000D01*
G37*
X159417857Y-81532000D02*
X165227000Y-81532000D01*
X165227000Y-109601000D01*
X121360000Y-109601000D01*
X121360000Y-101733216D01*
X122805000Y-101733216D01*
X122805000Y-104006784D01*
X123675057Y-106107287D01*
X125282713Y-107714943D01*
X127383216Y-108585000D01*
X129656784Y-108585000D01*
X131757287Y-107714943D01*
X133364943Y-106107287D01*
X134235000Y-104006784D01*
X134235000Y-101733216D01*
X137795000Y-101733216D01*
X137795000Y-104006784D01*
X138665057Y-106107287D01*
X140272713Y-107714943D01*
X142373216Y-108585000D01*
X144646784Y-108585000D01*
X146747287Y-107714943D01*
X147495402Y-106966828D01*
X154572777Y-106966828D01*
X155168556Y-107657641D01*
X157253537Y-108564265D01*
X159526758Y-108603989D01*
X161642142Y-107770765D01*
X161811444Y-107657641D01*
X162407223Y-106966828D01*
X158490000Y-103049605D01*
X154572777Y-106966828D01*
X147495402Y-106966828D01*
X148354943Y-106107287D01*
X149225000Y-104006784D01*
X149225000Y-103906758D01*
X152756011Y-103906758D01*
X153589235Y-106022142D01*
X153702359Y-106191444D01*
X154393172Y-106787223D01*
X158310395Y-102870000D01*
X158669605Y-102870000D01*
X162586828Y-106787223D01*
X163277641Y-106191444D01*
X164184265Y-104106463D01*
X164223989Y-101833242D01*
X163390765Y-99717858D01*
X163277641Y-99548556D01*
X162586828Y-98952777D01*
X158669605Y-102870000D01*
X158310395Y-102870000D01*
X154393172Y-98952777D01*
X153702359Y-99548556D01*
X152795735Y-101633537D01*
X152756011Y-103906758D01*
X149225000Y-103906758D01*
X149225000Y-101733216D01*
X148354943Y-99632713D01*
X147495402Y-98773172D01*
X154572777Y-98773172D01*
X158490000Y-102690395D01*
X162407223Y-98773172D01*
X161811444Y-98082359D01*
X159726463Y-97175735D01*
X157453242Y-97136011D01*
X155337858Y-97969235D01*
X155168556Y-98082359D01*
X154572777Y-98773172D01*
X147495402Y-98773172D01*
X146747287Y-98025057D01*
X144646784Y-97155000D01*
X142373216Y-97155000D01*
X140272713Y-98025057D01*
X138665057Y-99632713D01*
X137795000Y-101733216D01*
X134235000Y-101733216D01*
X133364943Y-99632713D01*
X131757287Y-98025057D01*
X129656784Y-97155000D01*
X127383216Y-97155000D01*
X125282713Y-98025057D01*
X123675057Y-99632713D01*
X122805000Y-101733216D01*
X121360000Y-101733216D01*
X121360000Y-90363497D01*
X121849000Y-90363497D01*
X121849000Y-92008503D01*
X122478517Y-93528289D01*
X123641711Y-94691483D01*
X125161497Y-95321000D01*
X126806503Y-95321000D01*
X128326289Y-94691483D01*
X129489483Y-93528289D01*
X130119000Y-92008503D01*
X130119000Y-90363497D01*
X129489483Y-88843711D01*
X128783772Y-88138000D01*
X134172887Y-88138000D01*
X134284260Y-88697909D01*
X134601423Y-89172577D01*
X134953758Y-89408000D01*
X134601423Y-89643423D01*
X134284260Y-90118091D01*
X134172887Y-90678000D01*
X134284260Y-91237909D01*
X134601423Y-91712577D01*
X134953758Y-91948000D01*
X134601423Y-92183423D01*
X134284260Y-92658091D01*
X134172887Y-93218000D01*
X134284260Y-93777909D01*
X134601423Y-94252577D01*
X135076091Y-94569740D01*
X135494667Y-94653000D01*
X135777333Y-94653000D01*
X136195909Y-94569740D01*
X136670577Y-94252577D01*
X136987740Y-93777909D01*
X137099113Y-93218000D01*
X136987740Y-92658091D01*
X136670577Y-92183423D01*
X136318242Y-91948000D01*
X136670577Y-91712577D01*
X136987740Y-91237909D01*
X137099113Y-90678000D01*
X136987740Y-90118091D01*
X136670577Y-89643423D01*
X136318242Y-89408000D01*
X136670577Y-89172577D01*
X136987740Y-88697909D01*
X137099113Y-88138000D01*
X141792887Y-88138000D01*
X141904260Y-88697909D01*
X142221423Y-89172577D01*
X142573758Y-89408000D01*
X142221423Y-89643423D01*
X141904260Y-90118091D01*
X141792887Y-90678000D01*
X141904260Y-91237909D01*
X142221423Y-91712577D01*
X142573758Y-91948000D01*
X142221423Y-92183423D01*
X141904260Y-92658091D01*
X141792887Y-93218000D01*
X141904260Y-93777909D01*
X142221423Y-94252577D01*
X142696091Y-94569740D01*
X143114667Y-94653000D01*
X143397333Y-94653000D01*
X143815909Y-94569740D01*
X143955524Y-94476452D01*
X146747000Y-94476452D01*
X146747000Y-95007548D01*
X146950242Y-95498217D01*
X147325783Y-95873758D01*
X147816452Y-96077000D01*
X148347548Y-96077000D01*
X148838217Y-95873758D01*
X149213758Y-95498217D01*
X149417000Y-95007548D01*
X149417000Y-94742000D01*
X150276846Y-94742000D01*
X150380458Y-95262891D01*
X150675519Y-95704481D01*
X151117109Y-95999542D01*
X151506515Y-96077000D01*
X151769485Y-96077000D01*
X152158891Y-95999542D01*
X152600481Y-95704481D01*
X152895542Y-95262891D01*
X152999154Y-94742000D01*
X152895542Y-94221109D01*
X152600481Y-93779519D01*
X152158891Y-93484458D01*
X151769485Y-93407000D01*
X151506515Y-93407000D01*
X151117109Y-93484458D01*
X150675519Y-93779519D01*
X150380458Y-94221109D01*
X150276846Y-94742000D01*
X149417000Y-94742000D01*
X149417000Y-94476452D01*
X149213758Y-93985783D01*
X148838217Y-93610242D01*
X148347548Y-93407000D01*
X147816452Y-93407000D01*
X147325783Y-93610242D01*
X146950242Y-93985783D01*
X146747000Y-94476452D01*
X143955524Y-94476452D01*
X144290577Y-94252577D01*
X144607740Y-93777909D01*
X144719113Y-93218000D01*
X144607740Y-92658091D01*
X144290577Y-92183423D01*
X143938242Y-91948000D01*
X144290577Y-91712577D01*
X144607740Y-91237909D01*
X144719113Y-90678000D01*
X144607740Y-90118091D01*
X144601998Y-90109497D01*
X156901000Y-90109497D01*
X156901000Y-91754503D01*
X157530517Y-93274289D01*
X158693711Y-94437483D01*
X160213497Y-95067000D01*
X161858503Y-95067000D01*
X163378289Y-94437483D01*
X164541483Y-93274289D01*
X165171000Y-91754503D01*
X165171000Y-90109497D01*
X164541483Y-88589711D01*
X163378289Y-87426517D01*
X161858503Y-86797000D01*
X160213497Y-86797000D01*
X158693711Y-87426517D01*
X157530517Y-88589711D01*
X156901000Y-90109497D01*
X144601998Y-90109497D01*
X144290577Y-89643423D01*
X143938242Y-89408000D01*
X144290577Y-89172577D01*
X144607740Y-88697909D01*
X144719113Y-88138000D01*
X144607740Y-87578091D01*
X144302990Y-87122000D01*
X146720846Y-87122000D01*
X146824458Y-87642891D01*
X147119519Y-88084481D01*
X147561109Y-88379542D01*
X147950515Y-88457000D01*
X148213485Y-88457000D01*
X148602891Y-88379542D01*
X149044481Y-88084481D01*
X149339542Y-87642891D01*
X149443154Y-87122000D01*
X149390334Y-86856452D01*
X150303000Y-86856452D01*
X150303000Y-87387548D01*
X150506242Y-87878217D01*
X150881783Y-88253758D01*
X151372452Y-88457000D01*
X151903548Y-88457000D01*
X152394217Y-88253758D01*
X152769758Y-87878217D01*
X152973000Y-87387548D01*
X152973000Y-86856452D01*
X152769758Y-86365783D01*
X152394217Y-85990242D01*
X151903548Y-85787000D01*
X151372452Y-85787000D01*
X150881783Y-85990242D01*
X150506242Y-86365783D01*
X150303000Y-86856452D01*
X149390334Y-86856452D01*
X149339542Y-86601109D01*
X149044481Y-86159519D01*
X148602891Y-85864458D01*
X148213485Y-85787000D01*
X147950515Y-85787000D01*
X147561109Y-85864458D01*
X147119519Y-86159519D01*
X146824458Y-86601109D01*
X146720846Y-87122000D01*
X144302990Y-87122000D01*
X144290577Y-87103423D01*
X143906892Y-86847053D01*
X144111134Y-86750389D01*
X144487041Y-86335423D01*
X144647904Y-85947039D01*
X144525915Y-85725000D01*
X143383000Y-85725000D01*
X143383000Y-85745000D01*
X143129000Y-85745000D01*
X143129000Y-85725000D01*
X141986085Y-85725000D01*
X141864096Y-85947039D01*
X142024959Y-86335423D01*
X142400866Y-86750389D01*
X142605108Y-86847053D01*
X142221423Y-87103423D01*
X141904260Y-87578091D01*
X141792887Y-88138000D01*
X137099113Y-88138000D01*
X136987740Y-87578091D01*
X136670577Y-87103423D01*
X136549894Y-87022785D01*
X136683765Y-86996157D01*
X136893809Y-86855809D01*
X137034157Y-86645765D01*
X137083440Y-86398000D01*
X137083440Y-85248961D01*
X141864096Y-85248961D01*
X141986085Y-85471000D01*
X143129000Y-85471000D01*
X143129000Y-84327371D01*
X143383000Y-84327371D01*
X143383000Y-85471000D01*
X144525915Y-85471000D01*
X144647904Y-85248961D01*
X144487041Y-84860577D01*
X144111134Y-84445611D01*
X143605041Y-84206086D01*
X143383000Y-84327371D01*
X143129000Y-84327371D01*
X142906959Y-84206086D01*
X142400866Y-84445611D01*
X142024959Y-84860577D01*
X141864096Y-85248961D01*
X137083440Y-85248961D01*
X137083440Y-84798000D01*
X137034157Y-84550235D01*
X136893809Y-84340191D01*
X136683765Y-84199843D01*
X136436000Y-84150560D01*
X134836000Y-84150560D01*
X134588235Y-84199843D01*
X134378191Y-84340191D01*
X134237843Y-84550235D01*
X134188560Y-84798000D01*
X134188560Y-86398000D01*
X134237843Y-86645765D01*
X134378191Y-86855809D01*
X134588235Y-86996157D01*
X134722106Y-87022785D01*
X134601423Y-87103423D01*
X134284260Y-87578091D01*
X134172887Y-88138000D01*
X128783772Y-88138000D01*
X128326289Y-87680517D01*
X126806503Y-87051000D01*
X125161497Y-87051000D01*
X123641711Y-87680517D01*
X122478517Y-88843711D01*
X121849000Y-90363497D01*
X121360000Y-90363497D01*
X121360000Y-80380000D01*
X145772560Y-80380000D01*
X145772560Y-82180000D01*
X145821843Y-82427765D01*
X145962191Y-82637809D01*
X146172235Y-82778157D01*
X146420000Y-82827440D01*
X148220000Y-82827440D01*
X148467765Y-82778157D01*
X148677809Y-82637809D01*
X148818157Y-82427765D01*
X148821275Y-82412092D01*
X148990493Y-82581310D01*
X149554670Y-82815000D01*
X150165330Y-82815000D01*
X150729507Y-82581310D01*
X151161310Y-82149507D01*
X151395000Y-81585330D01*
X151395000Y-80974670D01*
X151161310Y-80410493D01*
X150729507Y-79978690D01*
X150165330Y-79745000D01*
X149554670Y-79745000D01*
X148990493Y-79978690D01*
X148821275Y-80147908D01*
X148818157Y-80132235D01*
X148677809Y-79922191D01*
X148467765Y-79781843D01*
X148220000Y-79732560D01*
X146420000Y-79732560D01*
X146172235Y-79781843D01*
X145962191Y-79922191D01*
X145821843Y-80132235D01*
X145772560Y-80380000D01*
X121360000Y-80380000D01*
X121360000Y-78180000D01*
X159417857Y-78180000D01*
X159417857Y-81532000D01*
G04 #@! TD*
M02*
